<svg id="コンポーネント_27_19" data-name="コンポーネント 27 – 19" xmlns="http://www.w3.org/2000/svg" xmlns:xlink="http://www.w3.org/1999/xlink" width="20" height="20" viewBox="0 0 20 20">
  <defs>
    <clipPath id="clip-path">
      <rect id="長方形_4704" data-name="長方形 4704" width="17.372" height="16.177" transform="translate(0 -0.001)" fill="#12150c"/>
    </clipPath>
  </defs>
  <g id="グループ_9576" data-name="グループ 9576" transform="translate(1 2)">
    <g id="グループ_9575" data-name="グループ 9575" clip-path="url(#clip-path)">
      <path id="パス_1600" data-name="パス 1600" d="M6.385,13.81A1.183,1.183,0,1,1,5.2,14.993,1.183,1.183,0,0,1,6.385,13.81" fill="#12150c"/>
      <path id="パス_1601" data-name="パス 1601" d="M13.834,13.81a1.183,1.183,0,1,1-1.183,1.183,1.183,1.183,0,0,1,1.183-1.183" fill="#12150c"/>
      <path id="パス_1602" data-name="パス 1602" d="M5.309,10.15a.5.5,0,0,1-.482-.369c-.013-.045-1.212-4.472-1.6-5.735-.089-.293-.167-.6-.243-.9-.2-.788-.429-1.681-.807-1.773C1.33,1.168.411.993.407.992A.5.5,0,1,1,.594.009S1.54.19,2.415.4C3.376.638,3.67,1.789,3.954,2.9c.072.283.145.572.231.851.391,1.279,1.558,5.584,1.606,5.766a.5.5,0,0,1-.482.631" fill="#12150c"/>
      <path id="パス_1603" data-name="パス 1603" d="M15.281,12.866H6.2c-1.079,0-2.212-.17-2.431-1.431a1.741,1.741,0,0,1,.31-1.369,2.185,2.185,0,0,1,1.606-.788c1.109-.114,7.856-.992,9.452-1.2l1.093-4.394H3.509a.5.5,0,0,1,0-1H16.872a.5.5,0,0,1,.485.621L16.028,8.65a.5.5,0,0,1-.421.375c-.348.045-8.552,1.117-9.817,1.247a1.277,1.277,0,0,0-.911.4.766.766,0,0,0-.123.594c.046.269.1.6,1.446.6h9.079a.5.5,0,0,1,0,1" fill="#12150c"/>
    </g>
  </g>
  <rect id="長方形_4709" data-name="長方形 4709" width="20" height="20" fill="none"/>
</svg>
